<?xml version="1.0" encoding="iso-8859-1"?>
<!-- Generator: Adobe Illustrator 19.0.0, SVG Export Plug-In . SVG Version: 6.00 Build 0)  -->
<svg version="1.1" id="Capa_1" xmlns="http://www.w3.org/2000/svg" xmlns:xlink="http://www.w3.org/1999/xlink" x="0px" y="0px"
	 viewBox="0 0 426.667 426.667" style="enable-background:new 0 0 426.667 426.667;" xml:space="preserve">
<g>
	<polyline style="fill:#2F4859;" points="417.28,154.453 366.507,206.507 366.507,165.547 	"/>
	<polygon style="fill:#2F4859;" points="9.387,142.507 60.16,200.107 66.987,164.267 	"/>
	<polyline style="fill:#2F4859;" points="417.28,45.227 366.507,97.707 366.507,56.747 	"/>
	<polyline style="fill:#2F4859;" points="9.387,33.707 60.16,90.88 64.853,56.32 	"/>
</g>
<rect x="34.987" y="304.213" style="fill:#E56353;" width="357.12" height="122.453"/>
<polygon style="fill:#FCD462;" points="349.44,263.253 77.227,263.253 34.987,304.213 391.68,304.213 "/>
<rect x="60.16" y="330.24" style="fill:#2D93BA;" width="38.4" height="70.4"/>
<polygon style="fill:#27A2DB;" points="98.987,400.64 98.987,330.24 60.16,330.24 "/>
<g>
	<rect x="78.507" y="330.24" style="fill:#EBF0F3;" width="2.133" height="70.827"/>
	<rect x="60.16" y="347.307" style="fill:#EBF0F3;" width="38.4" height="3.413"/>
</g>
<rect x="328.96" y="330.24" style="fill:#2D93BA;" width="38.4" height="70.4"/>
<polygon style="fill:#27A2DB;" points="367.787,400.64 367.787,330.24 328.96,330.24 "/>
<g>
	<rect x="347.307" y="330.24" style="fill:#EBF0F3;" width="2.133" height="70.827"/>
	<rect x="328.96" y="347.307" style="fill:#EBF0F3;" width="38.4" height="3.413"/>
</g>
<rect x="140.8" y="330.24" style="fill:#DC8744;" width="145.493" height="96.427"/>
<g>
	<rect x="210.347" y="330.24" style="fill:#64798A;" width="6.4" height="96.427"/>
	<circle style="fill:#64798A;" cx="228.693" cy="378.453" r="5.12"/>
	<circle style="fill:#64798A;" cx="197.547" cy="378.453" r="5.12"/>
</g>
<rect x="60.16" y="97.707" style="fill:#FCD462;" width="306.347" height="18.347"/>
<polygon style="fill:#E56353;" points="366.507,159.147 60.16,154.88 60.16,116.053 366.507,116.053 "/>
<rect x="60.16" y="56.747" style="fill:#64798A;" width="306.347" height="40.96"/>
<g>
	<rect x="327.68" y="56.747" style="fill:#E1E6E9;" width="20.907" height="40.96"/>
	<rect x="285.867" y="56.747" style="fill:#E1E6E9;" width="20.907" height="40.96"/>
	<rect x="244.48" y="56.747" style="fill:#E1E6E9;" width="20.907" height="40.96"/>
	<rect x="203.093" y="56.747" style="fill:#E1E6E9;" width="20.907" height="40.96"/>
	<rect x="161.28" y="56.747" style="fill:#E1E6E9;" width="20.907" height="40.96"/>
	<rect x="119.893" y="56.747" style="fill:#E1E6E9;" width="20.907" height="40.96"/>
	<rect x="78.507" y="56.747" style="fill:#E1E6E9;" width="20.907" height="40.96"/>
</g>
<path style="fill:#3A556A;" d="M9.387,33.707c0,0,86.187,31.147,203.947-33.707c0,0,83.2,58.88,203.947,45.227
	C417.28,45.227,180.48,126.72,9.387,33.707z"/>
<rect x="60.16" y="206.507" style="fill:#FCD462;" width="306.347" height="18.347"/>
<rect x="60.16" y="225.28" style="fill:#E56353;" width="306.347" height="38.827"/>
<rect x="60.16" y="165.547" style="fill:#64798A;" width="306.347" height="40.96"/>
<g>
	<rect x="327.68" y="165.547" style="fill:#E1E6E9;" width="20.907" height="40.96"/>
	<rect x="285.867" y="165.547" style="fill:#E1E6E9;" width="20.907" height="40.96"/>
	<rect x="244.48" y="165.547" style="fill:#E1E6E9;" width="20.907" height="40.96"/>
	<rect x="203.093" y="165.547" style="fill:#E1E6E9;" width="20.907" height="40.96"/>
	<rect x="161.28" y="165.547" style="fill:#E1E6E9;" width="20.907" height="40.96"/>
	<rect x="119.893" y="165.547" style="fill:#E1E6E9;" width="20.907" height="40.96"/>
	<rect x="78.507" y="165.547" style="fill:#E1E6E9;" width="20.907" height="40.96"/>
</g>
<g>
	<path style="fill:#3A556A;" d="M9.387,142.507c0,0,86.187,31.147,203.947-33.707c0,0,83.2,58.88,203.947,45.227
		C417.28,154.453,180.48,235.947,9.387,142.507z"/>
	<path style="fill:#3A556A;" d="M270.08,243.627c35.84,12.8,87.04,24.32,147.2,17.493c0,0-236.8,81.493-407.893-11.52
		c0,0,52.48,16.213,130.987-5.973"/>
</g>
<g>
</g>
<g>
</g>
<g>
</g>
<g>
</g>
<g>
</g>
<g>
</g>
<g>
</g>
<g>
</g>
<g>
</g>
<g>
</g>
<g>
</g>
<g>
</g>
<g>
</g>
<g>
</g>
<g>
</g>
</svg>
