<?xml version="1.0" encoding="iso-8859-1"?>
<!-- Generator: Adobe Illustrator 19.0.0, SVG Export Plug-In . SVG Version: 6.00 Build 0)  -->
<svg version="1.1" id="Capa_1" xmlns="http://www.w3.org/2000/svg" xmlns:xlink="http://www.w3.org/1999/xlink" x="0px" y="0px"
	 viewBox="0 0 512 512" style="enable-background:new 0 0 512 512;" xml:space="preserve">
<path style="fill:#C86D5C;" d="M63.377,186.09l-0.014,0.003c0,0.001,0,0.002,0,0.003l-18.167,9.371l4.533,33.481l16.419,0.54
	l0.003,0.001l1.71-1.221c0,0,33.63-8.49,50.04-42.18H63.377V186.09z"/>
<polygon style="fill:#00A6C8;" points="373.09,360.46 138.91,360.46 104.774,442.242 138.91,504.5 373.09,504.5 407.226,442.242 "/>
<g>
	<path style="fill:#F0F0F0;" d="M129.832,353.226c-16.17,19.271-36.072,50.393-43.822,89.014l0,0l0,0l0,0l0,0l26.45,12.982
		l26.45-12.982l0,0v-81.78l3.31-14.874L129.832,353.226z"/>
	<path style="fill:#F0F0F0;" d="M382.168,353.226c16.17,19.271,36.072,50.393,43.822,89.014l0,0l0,0l0,0l0,0l-26.45,12.982
		l-26.45-12.982l0,0v-81.78l-3.31-14.874L382.168,353.226z"/>
</g>
<path style="fill:#C86D5C;" d="M448.624,186.09h-54.523c16.41,33.69,50.04,42.18,50.04,42.18l1.77,0.5l19.218-5.98L448.624,186.09z"
	/>
<path style="fill:#FFCE1C;" d="M442.61,109.381H69.39C107.45,48.39,176.86,7.5,256,7.5S404.55,48.39,442.61,109.381z"/>
<path style="fill:#FAA330;" d="M292.056,10.378C280.326,8.487,268.28,7.501,256,7.501c-79.14,0-148.55,40.89-186.61,101.881h72.113
	C173.657,57.854,228.187,20.676,292.056,10.378z"/>
<g>
	<path style="fill:#B24D40;" d="M448.624,186.09h-54.523c5.429,11.147,12.743,19.52,20.101,25.755h46.005L448.624,186.09z"/>
	<path style="fill:#B24D40;" d="M63.362,186.094c0,0.001,0,0.002,0,0.003l-18.167,9.371l2.217,16.377h50.386
		c7.358-6.235,14.672-14.608,20.101-25.755H63.377L63.362,186.094z"/>
</g>
<g>
	<path style="fill:#E3B098;" d="M448.638,186.093c-0.245,21.275-2.729,42.676-2.729,42.676l-16.295,18.458l8.382,23.002
		c2.008,0.292,4.058,0.451,6.146,0.451c23.425,0,42.414-18.989,42.414-42.414C486.556,206.363,469.949,188.34,448.638,186.093z"/>
	<path style="fill:#E3B098;" d="M66.148,229.489l-0.057-0.72c0,0-2.484-21.401-2.729-42.676
		c-21.31,2.247-37.918,20.269-37.918,42.175c0,23.424,18.989,42.414,42.414,42.414c2.091,0,4.144-0.16,6.154-0.452l11.997-25.748
		L66.148,229.489z"/>
</g>
<path style="fill:#FBC4AC;" d="M444.14,228.27c0,0-33.63-8.49-50.04-42.18l-138.07-20.353L117.9,186.09
	c-16.41,33.69-50.04,42.18-50.04,42.18l-1.77,0.5l0.057,0.72l0.003,0.001C72.931,324.2,155.331,399.01,256,399.01
	c100.92,0,183.49-75.19,189.91-170.241L444.14,228.27z"/>
<path style="fill:#3B484A;" d="M359.395,259.003c-4.267,0-7.726-3.459-7.726-7.726v-20.104c0-4.267,3.459-7.726,7.726-7.726
	s7.726,3.459,7.726,7.726v20.104C367.121,255.544,363.662,259.003,359.395,259.003z"/>
<path style="fill:#F98084;" d="M373.086,288.553h-27.382c-4.267,0-7.726-3.459-7.726-7.726s3.459-7.726,7.726-7.726h27.382
	c4.267,0,7.726,3.459,7.726,7.726S377.353,288.553,373.086,288.553z"/>
<path style="fill:#3B484A;" d="M152.605,259.003c-4.267,0-7.726-3.459-7.726-7.726v-20.104c0-4.267,3.459-7.726,7.726-7.726
	s7.726,3.459,7.726,7.726v20.104C160.331,255.544,156.872,259.003,152.605,259.003z"/>
<path style="fill:#F98084;" d="M166.296,288.553h-27.382c-4.267,0-7.726-3.459-7.726-7.726s3.459-7.726,7.726-7.726h27.382
	c4.267,0,7.726,3.459,7.726,7.726S170.563,288.553,166.296,288.553z"/>
<path style="fill:#3B484A;" d="M256,287.417c-9.437,0-18.298-3.945-24.311-10.823c-2.808-3.213-2.481-8.094,0.732-10.902
	s8.093-2.481,10.902,0.732c3.077,3.521,7.698,5.54,12.676,5.54c4.978,0,9.598-2.019,12.675-5.54
	c2.809-3.213,7.689-3.541,10.902-0.732s3.541,7.689,0.732,10.902C274.298,283.472,265.438,287.417,256,287.417z"/>
<path style="fill:#FF5E6B;" d="M460.31,145H51.69c4.74-12.47,10.69-24.39,17.7-35.62h373.22
	C449.62,120.609,455.57,132.53,460.31,145z"/>
<path style="fill:#E63E4C;" d="M69.39,109.381c-7.01,11.23-12.96,23.15-17.7,35.62h72.113c4.74-12.469,10.69-24.39,17.7-35.62
	C141.503,109.381,69.39,109.381,69.39,109.381z"/>
<g>
	<path style="fill:#42C3E2;" d="M138.914,360.46v93.097c0,11.695,9.481,21.175,21.175,21.175l0,0
		c11.695,0,21.175-9.481,21.175-21.175v-69.135C166.022,378.185,151.802,370.101,138.914,360.46z"/>
	<path style="fill:#42C3E2;" d="M330.736,384.419v69.139c0,11.695,9.481,21.175,21.175,21.175l0,0
		c11.695,0,21.175-9.481,21.175-21.175v-93.093C360.199,370.104,345.977,378.183,330.736,384.419z"/>
</g>
<g>
	<circle style="fill:#00A6C8;" cx="351.91" cy="448.737" r="6.49"/>
	<circle style="fill:#00A6C8;" cx="160.09" cy="448.737" r="6.49"/>
</g>
<path style="fill:#F0F0F0;" d="M256,399.01c-26.527,0-51.782-5.199-74.722-14.583c6.739,35.134,37.622,61.687,74.722,61.687
	c37.101,0,67.984-26.554,74.723-61.69C307.781,393.808,282.526,399.01,256,399.01z"/>
<path style="fill:#E3B098;" d="M117.9,186.09c-5.429,11.146-12.743,19.52-20.101,25.755h316.402
	c-7.358-6.235-14.672-14.609-20.101-25.755l-138.07-20.353L117.9,186.09z"/>
<path style="fill:#FFCE1C;" d="M512,165.55c0,11.34-9.199,20.54-20.55,20.54H20.55C9.2,186.09,0,176.89,0,165.55
	C0,154.201,9.2,145,20.55,145h470.9C502.8,145,512,154.2,512,165.55z"/>
<path style="fill:#FAA330;" d="M72.113,165.55c0-11.351,9.2-20.55,20.55-20.55H20.55C9.201,145,0,154.2,0,165.55
	c0,11.34,9.2,20.54,20.55,20.54h72.113C81.313,186.09,72.113,176.89,72.113,165.55z"/>
<g>
	<path style="fill:#FBC4AC;" d="M83.42,504.5h55.49v-62.26h-52.9c-0.33,1.57-0.63,3.16-0.91,4.77
		C82.08,464.32,81.17,483.48,83.42,504.5z"/>
	<path style="fill:#FBC4AC;" d="M428.58,504.5h-55.49v-62.26h52.9c0.33,1.57,0.63,3.16,0.91,4.77
		C429.92,464.32,430.83,483.48,428.58,504.5z"/>
</g>
<g>
</g>
<g>
</g>
<g>
</g>
<g>
</g>
<g>
</g>
<g>
</g>
<g>
</g>
<g>
</g>
<g>
</g>
<g>
</g>
<g>
</g>
<g>
</g>
<g>
</g>
<g>
</g>
<g>
</g>
</svg>
