<?xml version="1.0" encoding="iso-8859-1"?>
<!-- Generator: Adobe Illustrator 19.0.0, SVG Export Plug-In . SVG Version: 6.00 Build 0)  -->
<svg version="1.1" id="Capa_1" xmlns="http://www.w3.org/2000/svg" xmlns:xlink="http://www.w3.org/1999/xlink" x="0px" y="0px"
	 viewBox="0 0 511.999 511.999" style="enable-background:new 0 0 511.999 511.999;" xml:space="preserve">
<path style="fill:#67C787;" d="M447.491,318.594c11.11,4.017,15.886,17.14,9.958,27.359c-13.366,23.04-41.466,60.951-88.621,78.115
	c-35.981,13.096-80.229,1.733-91.118-28.186c-10.89-29.919,15.703-67.066,51.684-80.162
	C376.547,298.557,422.442,309.537,447.491,318.594z"/>
<path style="opacity:0.1;enable-background:new    ;" d="M323.936,386.557c-3.064,0-5.94-1.891-7.049-4.937
	c-1.417-3.892,0.591-8.196,4.482-9.613l70.285-25.582c3.893-1.417,8.196,0.591,9.613,4.483c1.417,3.892-0.591,8.196-4.482,9.613
	L326.5,386.103C325.654,386.411,324.787,386.557,323.936,386.557z"/>
<path style="fill:#67C787;" d="M64.508,318.594c-11.11,4.017-15.886,17.14-9.958,27.359c13.367,23.04,41.466,60.951,88.621,78.115
	c35.981,13.096,80.229,1.733,91.118-28.186s-15.703-67.066-51.684-80.162C135.451,298.557,89.557,309.537,64.508,318.594z"/>
<path style="opacity:0.1;enable-background:new    ;" d="M188.062,386.557c-0.852,0-1.718-0.146-2.564-0.454l-70.285-25.582
	c-3.892-1.417-5.899-5.721-4.482-9.613c1.416-3.892,5.716-5.899,9.613-4.483l70.285,25.582c3.892,1.417,5.899,5.721,4.482,9.613
	C194.003,384.666,191.127,386.557,188.062,386.557z"/>
<path style="fill:#8ADBA1;" d="M288.712,236.038h-65.426v251.643c0,13.43,10.887,24.318,24.318,24.318h16.79
	c13.43,0,24.318-10.887,24.318-24.318V236.038z"/>
<path style="opacity:0.1;enable-background:new    ;" d="M223.287,373.342c2.607,0.298,5.069,1.684,6.643,4.03
	c5.822,8.679,11.638,15.883,16.295,21.195c5.183,5.912,14.366,5.912,19.549,0c4.657-5.312,10.473-12.517,16.295-21.195
	c1.574-2.347,4.037-3.732,6.643-4.03V236.038h-65.426L223.287,373.342L223.287,373.342z"/>
<path style="fill:#EAC268;" d="M423.922,110.099c-15.134-5.134-41.454-12.057-69.486-10.241c-4.549,0.295-8.351-3.508-8.057-8.057
	c1.816-28.032-5.107-54.351-10.241-69.485c-2.525-7.442-11.02-10.961-18.068-7.484c-14.332,7.071-37.838,20.787-56.375,41.892
	c-3.008,3.425-8.386,3.425-11.394,0c-18.538-21.105-42.043-34.821-56.375-41.892c-7.048-3.477-15.543,0.042-18.068,7.484
	c-5.134,15.134-12.056,41.454-10.241,69.486c0.295,4.549-3.508,8.351-8.057,8.057c-28.032-1.815-54.351,5.107-69.486,10.241
	c-7.442,2.525-10.961,11.02-7.484,18.068c7.071,14.332,20.787,37.837,41.892,56.375c3.425,3.008,3.425,8.386,0,11.394
	c-21.105,18.538-34.821,42.043-41.892,56.375c-3.477,7.048,0.041,15.543,7.484,18.068c15.134,5.134,41.454,12.056,69.486,10.241
	c4.549-0.295,8.351,3.508,8.057,8.057c-1.815,28.032,5.107,54.351,10.241,69.486c2.525,7.442,11.02,10.961,18.068,7.484
	c14.332-7.071,37.837-20.787,56.375-41.892c3.008-3.425,8.386-3.425,11.394,0c18.538,21.105,42.043,34.821,56.375,41.892
	c7.048,3.477,15.543-0.042,18.068-7.484c5.134-15.134,12.056-41.454,10.241-69.486c-0.295-4.549,3.508-8.351,8.057-8.057
	c28.032,1.815,54.351-5.107,69.486-10.241c7.442-2.525,10.961-11.02,7.484-18.068c-7.071-14.332-20.787-37.837-41.892-56.375
	c-3.425-3.008-3.425-8.386,0-11.394c21.105-18.538,34.821-42.043,41.892-56.375C434.883,121.119,431.364,112.624,423.922,110.099z"
	/>
<path style="fill:#F7D88B;" d="M441.807,180.46c-12.017-10.535-33.685-27.002-60.277-36.052c-4.315-1.469-6.373-6.437-4.36-10.527
	c12.405-25.203,16.081-52.168,17.13-68.115c0.515-7.842-5.986-14.344-13.828-13.828c-15.947,1.048-42.912,4.725-68.115,17.13
	c-4.09,2.013-9.058-0.045-10.527-4.36c-9.05-26.593-25.517-48.26-36.052-60.277c-5.181-5.91-14.376-5.91-19.556,0
	c-10.535,12.017-27.003,33.685-36.052,60.277c-1.469,4.315-6.437,6.373-10.527,4.36c-25.203-12.405-52.168-16.081-68.115-17.13
	c-7.842-0.515-14.344,5.986-13.828,13.828c1.048,15.947,4.725,42.912,17.13,68.115c2.013,4.09-0.045,9.058-4.36,10.527
	c-26.593,9.05-48.26,25.517-60.277,36.052c-5.91,5.181-5.91,14.376,0,19.556c12.017,10.535,33.685,27.002,60.277,36.052
	c4.315,1.469,6.373,6.437,4.36,10.527c-12.405,25.203-16.081,52.168-17.13,68.115c-0.515,7.842,5.986,14.344,13.828,13.828
	c15.947-1.048,42.912-4.725,68.115-17.129c4.09-2.013,9.058,0.045,10.527,4.36c9.05,26.593,25.517,48.26,36.052,60.277
	c5.181,5.91,14.376,5.91,19.556,0c10.535-12.017,27.003-33.685,36.052-60.277c1.469-4.315,6.437-6.373,10.527-4.36
	c25.203,12.404,52.168,16.081,68.115,17.129c7.842,0.516,14.344-5.986,13.828-13.828c-1.048-15.947-4.725-42.912-17.13-68.115
	c-2.013-4.09,0.045-9.058,4.36-10.527c26.593-9.05,48.26-25.517,60.277-36.052C447.717,194.836,447.717,185.641,441.807,180.46z"/>
<circle style="fill:#B38A82;" cx="255.998" cy="190.237" r="105.699"/>
<path style="opacity:0.1;enable-background:new    ;" d="M307.761,282.407c-142.133-1.697-134.526-151.534-86.819-191.905
	c-41.143,14.461-70.641,53.651-70.641,99.736c0,58.375,47.322,105.697,105.696,105.697
	C274.806,295.936,292.462,291.018,307.761,282.407z"/>
<g style="opacity:0.1;">
	<circle cx="322.847" cy="155.288" r="7.541"/>
	<circle cx="330.387" cy="194.777" r="7.541"/>
	<circle cx="300.217" cy="179.697" r="7.541"/>
	<circle cx="296.258" cy="136.428" r="7.541"/>
	<circle cx="188.658" cy="177.477" r="7.541"/>
	<circle cx="190.128" cy="231.457" r="7.541"/>
	<circle cx="211.438" cy="205.497" r="7.541"/>
	<circle cx="215.748" cy="255.997" r="7.541"/>
	<circle cx="315.307" cy="220.957" r="7.541"/>
</g>
<g>
</g>
<g>
</g>
<g>
</g>
<g>
</g>
<g>
</g>
<g>
</g>
<g>
</g>
<g>
</g>
<g>
</g>
<g>
</g>
<g>
</g>
<g>
</g>
<g>
</g>
<g>
</g>
<g>
</g>
</svg>
