<?xml version="1.0" encoding="iso-8859-1"?>
<!-- Generator: Adobe Illustrator 19.0.0, SVG Export Plug-In . SVG Version: 6.00 Build 0)  -->
<svg version="1.1" id="Capa_1" xmlns="http://www.w3.org/2000/svg" xmlns:xlink="http://www.w3.org/1999/xlink" x="0px" y="0px"
	 viewBox="0 0 512 512" style="enable-background:new 0 0 512 512;" xml:space="preserve">
<path style="fill:#F0C087;" d="M502,308.806V491H10V308.806c0-5.529,4.477-10.011,10-10.011h11v-25.027c0-2.764,2.239-5.005,5-5.005
	h20c2.761,0,5,2.241,5,5.005v25.027h30v-25.027c0-2.764,2.239-5.005,5-5.005h20c2.761,0,5,2.241,5,5.005v25.027h270v-25.027
	c0-2.764,2.239-5.005,5-5.005h20c2.761,0,5,2.241,5,5.005v25.027h30v-25.027c0-2.764,2.239-5.005,5-5.005h20
	c2.761,0,5,2.241,5,5.005v25.027h11C497.523,298.796,502,303.277,502,308.806z"/>
<path style="fill:#D5945E;" d="M502,328.827V491H10V328.827h160V136.623h172v192.204H502z"/>
<path style="fill:#CE8855;" d="M502,328.827V491h-29V328.827H502z M312,388.891h30V136.623h-30V388.891z"/>
<path style="fill:#C83741;" d="M376,128.614H136l30-52.055h180L376,128.614z"/>
<path style="fill:#963737;" d="M386.929,118.604c4.455,0,6.685,5.391,3.536,8.545l-20,20.021c-0.938,0.939-2.209,1.466-3.536,1.466
	H323H189h-43.929c-1.326,0-2.598-0.527-3.536-1.466l-20-20.021c-3.15-3.153-0.919-8.545,3.536-8.545H159h194
	C353,118.604,386.929,118.604,386.929,118.604z"/>
<path style="fill:#E6AF78;" d="M512,463.971v22.023c0,2.764-2.239,5.005-5,5.005H361H151H5c-2.761,0-5-2.241-5-5.005v-22.023
	c0-2.764,2.239-5.005,5-5.005h146V243.737v-5.005v-25.027c0-2.764,2.239-5.005,5-5.005h20c2.761,0,5,2.241,5,5.005v25.027h30
	v-25.027c0-2.764,2.239-5.005,5-5.005h20c2.761,0,5,2.241,5,5.005v25.027h30v-25.027c0-2.764,2.239-5.005,5-5.005h20
	c2.761,0,5,2.241,5,5.005v25.027h30v-25.027c0-2.764,2.239-5.005,5-5.005h20c2.761,0,5,2.241,5,5.005v25.027v5.005v215.229h146
	C509.761,458.966,512,461.207,512,463.971z"/>
<g>
	<path style="fill:#963737;" d="M347,80.563H165V48.529h182V80.563z"/>
	<path style="fill:#963737;" d="M180,28.508v40.043c0,4.147-3.358,7.508-7.5,7.508s-7.5-3.361-7.5-7.508V28.508
		c0-4.147,3.358-7.508,7.5-7.508S180,24.361,180,28.508z M339.5,21c-4.142,0-7.5,3.361-7.5,7.508v40.043
		c0,4.147,3.358,7.508,7.5,7.508s7.5-3.361,7.5-7.508V28.508C347,24.361,343.642,21,339.5,21z"/>
</g>
<path style="fill:#F0C087;" d="M361,213.705v25.027v5.005v25.027H151v-25.027v-5.005v-25.027c0-2.764,2.239-5.005,5-5.005h20
	c2.761,0,5,2.241,5,5.005v25.027h30v-25.027c0-2.764,2.239-5.005,5-5.005h20c2.761,0,5,2.241,5,5.005v25.027h30v-25.027
	c0-2.764,2.239-5.005,5-5.005h20c2.761,0,5,2.241,5,5.005v25.027h30v-25.027c0-2.764,2.239-5.005,5-5.005h20
	C358.761,208.7,361,210.941,361,213.705z"/>
<g>
	<path style="fill:#C37A4F;" d="M211,323.822v30.032c0,2.764-2.239,5.005-5,5.005h-20c-2.761,0-5-2.241-5-5.005v-30.032
		c0-8.293,6.716-15.016,15-15.016S211,315.529,211,323.822z M316,308.806c-8.284,0-15,6.723-15,15.016v30.032
		c0,2.764,2.239,5.005,5,5.005h20c2.761,0,5-2.241,5-5.005v-30.032C331,315.529,324.284,308.806,316,308.806z M256,308.806
		c-8.284,0-15,6.723-15,15.016v30.032c0,2.764,2.239,5.005,5,5.005h20c2.761,0,5-2.241,5-5.005v-30.032
		C271,315.529,264.284,308.806,256,308.806z"/>
	<path style="fill:#C37A4F;" d="M417.5,398.902c0,4.146-3.358,7.508-7.5,7.508h-20c-4.142,0-7.5-3.361-7.5-7.508
		s3.358-7.508,7.5-7.508h20C414.142,391.394,417.5,394.756,417.5,398.902z M477.5,358.859c0-4.147-3.358-7.508-7.5-7.508h-20
		c-4.142,0-7.5,3.361-7.5,7.508c0,4.146,3.358,7.508,7.5,7.508h20C474.142,366.367,477.5,363.006,477.5,358.859z M110,381.383H90
		c-4.142,0-7.5,3.361-7.5,7.508c0,4.146,3.358,7.508,7.5,7.508h20c4.142,0,7.5-3.361,7.5-7.508
		C117.5,384.745,114.142,381.383,110,381.383z M37.5,358.859c0-4.147-3.358-7.508-7.5-7.508H10v15.016h20
		C34.142,366.367,37.5,363.006,37.5,358.859z M60,411.415H40c-4.142,0-7.5,3.361-7.5,7.508s3.358,7.508,7.5,7.508h20
		c4.142,0,7.5-3.361,7.5-7.508C67.5,414.777,64.142,411.415,60,411.415z M500,421.426h-20c-4.142,0-7.5,3.361-7.5,7.508
		s3.358,7.508,7.5,7.508h20c0.694,0,1.362-0.102,2-0.278v-14.459C501.362,421.528,500.694,421.426,500,421.426z"/>
</g>
<g>
</g>
<g>
</g>
<g>
</g>
<g>
</g>
<g>
</g>
<g>
</g>
<g>
</g>
<g>
</g>
<g>
</g>
<g>
</g>
<g>
</g>
<g>
</g>
<g>
</g>
<g>
</g>
<g>
</g>
</svg>
