<?xml version="1.0" standalone="no"?>
<!DOCTYPE svg PUBLIC "-//W3C//DTD SVG 20010904//EN"
 "http://www.w3.org/TR/2001/REC-SVG-20010904/DTD/svg10.dtd">
<svg version="1.0" xmlns="http://www.w3.org/2000/svg"
 width="819.200000pt" height="614.400000pt" viewBox="0 0 819.200000 614.400000"
 preserveAspectRatio="xMidYMid meet">
<metadata>
Created by potrace 1.13, written by Peter Selinger 2001-2015
</metadata>
<g transform="translate(0.000000,614.400000) scale(0.080000,-0.080000)"
fill="#000000" stroke="none">
<path d="M3890 7205 l0 -65 38 1 c36 1 36 2 7 8 -38 8 -42 42 -5 52 24 7 24 7
3 8 -17 1 -23 7 -23 25 0 19 6 26 28 29 22 3 20 4 -10 6 l-38 1 0 -65z"/>
<path d="M3980 7229 c0 -47 21 -89 45 -89 23 0 45 42 45 87 0 64 -19 52 -22
-14 -3 -50 -6 -58 -23 -58 -17 0 -20 8 -23 50 -4 65 -22 85 -22 24z"/>
<path d="M4107 7263 c-11 -10 -8 -123 3 -123 6 0 10 11 10 25 0 16 6 25 15 25
9 0 20 -11 25 -25 13 -35 21 -31 9 4 -7 21 -7 36 0 50 9 15 7 23 -5 35 -16 16
-46 21 -57 9z m51 -31 c2 -13 -3 -25 -13 -28 -23 -9 -38 10 -30 36 9 27 39 22
43 -8z"/>
<path d="M4325 7259 c-4 -6 -3 -36 1 -67 6 -40 9 -49 12 -29 2 19 9 27 22 27
11 0 24 9 30 19 13 25 13 27 -6 45 -18 18 -50 21 -59 5z m53 -16 c13 -24 4
-43 -19 -43 -14 0 -19 7 -19 30 0 34 23 41 38 13z"/>
<path d="M4420 7205 l0 -65 38 1 c36 1 36 2 7 8 -16 3 -29 10 -27 14 1 4 2 13
2 21 0 8 10 17 23 19 l22 4 -22 2 c-17 1 -23 7 -23 25 0 19 6 26 28 29 22 3
20 4 -10 6 l-38 1 0 -65z"/>
<path d="M4700 7250 c-27 -27 -26 -75 2 -94 33 -23 64 -19 87 11 24 30 20 58
-11 86 -27 22 -53 22 -78 -3z"/>
<path d="M4204 7235 c-18 -28 -9 -75 17 -83 11 -4 12 -2 2 9 -16 17 -17 71 -1
87 7 7 9 12 5 12 -3 0 -14 -11 -23 -25z"/>
<path d="M4278 7248 c16 -16 15 -70 0 -87 -11 -11 -10 -12 0 -6 31 17 30 105
-1 105 -7 0 -7 -4 1 -12z"/>
<path d="M7440 7010 c-41 -41 -13 -110 46 -110 51 0 76 78 34 112 -29 23 -55
23 -80 -2z"/>
<path d="M7647 7023 c-11 -10 -8 -123 3 -123 6 0 10 11 10 25 0 16 6 25 15 25
9 0 20 -11 25 -25 13 -35 20 -31 10 6 -6 19 -6 39 0 50 16 30 -39 67 -63 42z
m51 -31 c2 -14 -3 -25 -13 -29 -25 -9 -36 14 -26 55 1 2 9 2 19 0 9 -2 18 -13
20 -26z"/>
<path d="M7742 6974 c5 -52 17 -74 43 -74 6 1 2 5 -7 11 -14 8 -18 23 -18 64
0 34 -4 55 -11 55 -8 0 -10 -18 -7 -56z"/>
<path d="M7808 6970 c-2 -50 -1 -58 10 -43 14 19 17 103 3 103 -5 0 -11 -27
-13 -60z"/>
<path d="M7866 7015 c-19 -20 -12 -39 20 -54 36 -16 28 -47 -11 -44 -25 2 -27
0 -12 -8 21 -12 53 -4 61 17 6 15 -21 48 -45 56 -22 7 -2 41 21 35 11 -3 18
-1 14 4 -8 14 -31 11 -48 -6z"/>
<path d="M7950 6966 c0 -38 4 -66 10 -66 12 0 11 118 -1 126 -5 3 -9 -24 -9
-60z"/>
<path d="M8027 7023 c-9 -16 -37 -117 -33 -120 2 -3 7 5 11 16 9 28 55 29 62
1 3 -11 9 -20 13 -20 5 0 -1 29 -13 65 -20 61 -30 75 -40 58z m23 -55 c0 -10
-7 -18 -15 -18 -17 0 -18 4 -8 38 4 18 8 20 14 10 5 -7 9 -21 9 -30z"/>
<path d="M4675 6970 c4 -6 10 -8 15 -5 5 3 11 1 15 -5 3 -5 14 -10 23 -10 13
0 14 2 3 9 -11 7 -11 9 0 13 8 3 -3 5 -24 6 -23 1 -35 -3 -32 -8z"/>
<path d="M697 6893 c-9 -16 -37 -117 -33 -120 2 -3 7 5 11 16 9 28 55 29 62 1
3 -11 9 -20 13 -20 4 0 -2 29 -14 65 -20 61 -29 75 -39 58z m23 -55 c0 -10 -7
-18 -15 -18 -17 0 -18 4 -8 38 4 18 8 20 14 10 5 -7 9 -21 9 -30z"/>
<path d="M782 6833 l1 -68 6 55 6 55 19 -55 c16 -45 21 -51 27 -35 5 11 15 36
23 55 l14 35 1 -52 c1 -29 5 -53 10 -53 5 0 8 8 6 18 -2 9 -4 38 -4 65 -1 26
-5 47 -10 47 -5 0 -17 -22 -26 -50 -9 -27 -18 -50 -20 -50 -2 0 -11 23 -20 50
-9 28 -21 50 -26 50 -5 0 -8 -30 -7 -67z"/>
<path d="M921 6835 l-1 -65 37 1 c31 2 33 3 11 6 -36 6 -40 49 -5 56 l22 4
-22 2 c-17 1 -23 7 -23 25 0 19 6 26 28 29 22 3 21 4 -9 6 l-36 1 -2 -65z"/>
<path d="M1015 6890 c-9 -14 -3 -110 7 -116 4 -3 8 6 8 20 0 35 27 34 41 0 5
-15 12 -25 15 -22 2 3 0 18 -6 33 -7 20 -8 31 0 39 14 14 13 22 -6 40 -17 18
-50 21 -59 6z m50 -30 c0 -16 -6 -26 -17 -28 -14 -3 -18 3 -18 28 0 25 4 31
18 28 11 -2 17 -12 17 -28z"/>
<path d="M1110 6835 c0 -36 4 -65 9 -65 6 0 10 29 10 65 0 36 -4 65 -10 65 -5
0 -9 -29 -9 -65z"/>
<path d="M1175 6875 c-28 -27 -29 -33 -16 -68 11 -28 58 -45 75 -27 8 8 7 9
-6 5 -30 -12 -58 12 -58 51 0 30 5 37 33 49 19 9 25 14 14 15 -10 0 -29 -11
-42 -25z"/>
<path d="M1274 6835 c-11 -36 -17 -65 -13 -65 3 0 9 9 12 20 7 28 53 27 62 -1
4 -11 8 -19 11 -17 6 7 -32 122 -42 125 -5 2 -19 -26 -30 -62z m45 -2 c1 -7
-8 -13 -18 -13 -18 0 -19 3 -9 32 10 28 12 30 19 12 4 -10 8 -25 8 -31z"/>
<path d="M1553 6890 c-29 -12 -45 -44 -37 -75 11 -44 77 -61 106 -27 30 34 29
52 -1 83 -32 31 -35 32 -68 19z"/>
<path d="M8020 6754 c0 -8 7 -14 15 -14 8 0 15 5 15 11 0 5 5 7 10 4 6 -3 10
-2 10 3 0 5 -11 10 -25 10 -15 0 -25 -6 -25 -14z"/>
<path d="M7499 6695 c-1 -5 -1 -13 0 -17 2 -12 -17 -10 -24 2 -7 12 -25 4 -25
-10 0 -9 56 -7 65 2 2 2 0 10 -5 18 -6 8 -10 11 -11 5z"/>
<path d="M7823 6623 c-25 -9 -14 -33 15 -32 15 0 21 3 13 6 -10 4 -10 7 -1 13
14 9 -8 20 -27 13z"/>
<path d="M1470 6581 c0 -9 3 -12 8 -6 8 12 38 12 65 0 10 -4 21 -5 24 -1 4 3
0 6 -8 6 -11 0 -12 2 -1 9 9 5 -5 8 -37 8 -40 0 -51 -3 -51 -16z"/>
<path d="M3880 6548 c-170 -10 -194 -14 -183 -31 5 -9 4 -9 -8 0 -11 9 -18 8
-31 -1 -10 -7 -15 -15 -12 -18 3 -4 1 -9 -4 -12 -12 -7 -10 13 2 32 6 10 2 11
-16 7 -12 -3 -99 -20 -191 -39 -93 -18 -173 -38 -177 -42 -5 -5 -7 -19 -4 -31
6 -21 32 -29 131 -38 18 -2 37 -6 43 -10 6 -4 21 1 33 12 22 18 22 18 4 -3
-14 -17 -16 -32 -11 -78 5 -45 10 -56 22 -51 12 4 12 3 3 -9 -10 -12 7 -15
111 -20 68 -3 200 -7 294 -9 l170 -2 103 122 c100 120 103 122 178 151 l76 28
-124 27 c-132 29 -161 30 -409 15z"/>
<path d="M7670 6553 c0 -7 -5 -12 -11 -10 -6 1 -14 -4 -16 -10 -5 -14 15 -17
34 -5 8 5 9 13 3 22 -7 10 -10 11 -10 3z"/>
<path d="M7455 6540 c-3 -5 4 -7 15 -5 11 2 20 -1 20 -6 0 -13 30 -8 33 5 3
12 -61 18 -68 6z"/>
<path d="M1263 6533 c-25 -9 -14 -33 15 -32 15 0 21 3 13 6 -10 4 -10 7 -1 13
14 9 -8 20 -27 13z"/>
<path d="M1590 6450 c-8 -5 -18 -6 -22 -4 -4 3 -8 0 -8 -5 0 -13 47 -15 55 -2
8 14 -9 21 -25 11z"/>
<path d="M2863 6323 l-93 -4 -41 -54 c-23 -30 -44 -55 -48 -55 -3 0 -15 14
-26 30 -11 16 -24 30 -28 30 -5 0 -63 -22 -131 -50 -68 -27 -135 -50 -150 -50
-15 0 -141 13 -279 29 -233 28 -523 49 -692 52 -50 1 -122 -11 -250 -40 l-180
-42 -173 -177 c-95 -97 -167 -178 -160 -180 8 -1 160 13 340 32 l327 35 259
165 c143 91 266 168 274 171 10 4 43 -86 132 -367 66 -205 121 -379 124 -385
2 -7 0 -13 -5 -13 -5 0 -146 75 -313 166 -417 227 -467 254 -475 254 -4 0 -4
-73 0 -162 l7 -163 -81 -140 c-44 -77 -81 -146 -81 -154 0 -14 12 -35 108
-188 l51 -81 -34 -24 c-19 -12 -35 -26 -35 -29 0 -16 105 -189 108 -177 1 7
-6 58 -17 113 -10 55 -18 101 -16 103 1 1 24 -46 50 -105 28 -63 85 -162 137
-239 l89 -131 87 -15 c70 -13 105 -26 182 -70 83 -47 98 -60 120 -102 21 -41
36 -55 97 -88 75 -41 93 -42 93 -5 0 16 -14 30 -56 52 -44 24 -54 34 -50 50 2
11 7 45 11 75 l7 55 -61 30 c-34 16 -61 32 -61 36 0 3 11 37 25 74 l26 68 -56
-7 c-33 -4 -84 -21 -125 -41 -38 -19 -74 -35 -80 -35 -6 0 -10 45 -10 123 l0
122 118 55 118 55 89 -5 90 -5 40 -75 40 -75 3 108 3 107 92 76 c51 42 165
146 254 230 l163 154 53 0 c30 0 75 3 100 6 45 7 47 8 86 83 l40 76 1 -41 0
-41 87 -16 c48 -9 88 -15 88 -14 1 1 -6 53 -17 116 -16 101 -24 124 -63 191
l-45 77 -132 57 c-73 32 -139 60 -146 63 -8 3 -27 -27 -55 -84 -36 -76 -54
-101 -126 -169 l-84 -79 -54 60 c-30 33 -71 80 -91 103 l-36 44 31 56 32 57
129 26 130 26 77 64 c43 35 90 74 104 86 33 28 50 28 104 2 l44 -21 -28 -52
c-16 -28 -29 -56 -29 -62 0 -7 21 -25 46 -42 l47 -30 51 36 c63 44 105 81 118
106 9 16 -4 32 -83 112 -74 74 -99 94 -119 92 -14 -1 -67 -4 -117 -5z"/>
<path d="M3683 6151 c-149 -20 -274 -39 -278 -43 -10 -10 26 -165 39 -166 6 0
34 -4 61 -7 l50 -7 33 47 c18 25 29 51 26 57 -5 7 -2 8 6 3 10 -6 12 -4 7 8
-5 12 -1 17 13 17 18 0 349 116 359 126 8 7 -37 2 -316 -35z"/>
<path d="M8186 6086 c82 -97 93 -107 142 -122 30 -9 55 -14 57 -12 4 4 -245
215 -273 232 -9 5 25 -39 74 -98z"/>
<path d="M8765 6096 l-80 -21 80 -5 c44 -3 81 -5 83 -4 2 1 2 13 0 26 l-3 24
-80 -20z"/>
<path d="M8605 5975 c-60 -12 -128 -26 -149 -29 l-39 -7 52 -25 52 -24 100 50
c54 28 99 52 99 55 0 3 -1 5 -2 4 -2 -1 -52 -11 -113 -24z"/>
<path d="M4915 5949 c-54 -33 -53 -33 18 -5 26 10 47 23 47 27 0 14 -12 10
-65 -22z"/>
<path d="M8140 5934 l-115 -33 128 0 127 -1 0 35 c0 22 -5 35 -12 34 -7 -1
-65 -16 -128 -35z"/>
<path d="M7587 5910 c45 -18 366 -130 373 -130 7 0 42 111 37 116 -4 4 -343
24 -389 23 -36 0 -39 -2 -21 -9z"/>
<path d="M8533 5838 c3 -13 11 -56 18 -95 7 -40 16 -73 19 -73 3 0 11 21 18
46 12 45 11 48 -19 95 -34 54 -44 61 -36 27z"/>
<path d="M7970 5635 c0 -75 4 -134 8 -131 4 2 25 31 47 63 22 32 58 83 82 114
l42 57 -62 11 c-34 7 -74 14 -89 17 l-28 6 0 -137z"/>
<path d="M8125 5535 c-10 -91 -16 -167 -13 -170 3 -3 18 -1 33 5 l27 10 -6
108 c-7 110 -16 205 -20 210 -2 1 -11 -72 -21 -163z"/>
<path d="M4530 5682 c0 -10 22 -32 32 -32 4 0 12 9 18 20 10 18 8 20 -20 20
-16 0 -30 -4 -30 -8z"/>
<path d="M5115 5556 l-50 -12 -13 -70 c-17 -94 -12 -103 24 -52 16 23 47 67
68 96 21 28 34 51 29 51 -4 -1 -30 -7 -58 -13z"/>
<path d="M4860 5483 c11 -24 25 -43 30 -43 17 0 11 15 -20 50 l-31 35 21 -42z"/>
<path d="M7955 5452 c-11 -15 -41 -57 -68 -94 -53 -76 -55 -71 43 -103 l54
-18 43 48 c23 27 40 52 37 56 -2 4 1 9 8 11 14 5 -14 48 -64 95 l-33 31 -20
-26z"/>
<path d="M5261 5249 c-1 -34 4 -51 20 -65 20 -18 20 -18 13 11 -4 17 -13 46
-20 65 l-13 35 0 -46z"/>
<path d="M7878 5205 c11 -22 21 -46 23 -54 4 -11 7 -11 17 1 10 12 5 22 -23
54 l-36 39 19 -40z"/>
<path d="M8007 5217 c4 -7 24 -35 43 -61 l35 -49 6 44 6 44 1 -53 2 -53 25 18
c13 10 25 22 25 26 0 5 -14 28 -30 53 -29 41 -34 44 -76 44 -35 0 -43 -3 -37
-13z"/>
<path d="M7778 5076 c-65 -28 -119 -55 -121 -61 -4 -10 20 -346 26 -351 4 -4
260 77 269 85 7 6 57 166 58 184 0 4 -9 7 -20 7 -11 0 -20 4 -20 10 0 5 7 7
15 4 8 -4 15 -4 15 -1 0 9 -91 166 -98 170 -4 2 -60 -19 -124 -47z m-84 -64
c-19 -6 -3 -24 117 -131 77 -68 139 -126 139 -128 0 -7 -75 53 -90 72 -7 8
-16 12 -21 9 -5 -3 -8 -2 -7 3 2 5 -15 25 -37 45 -141 128 -149 139 -101 137
21 -1 21 -1 0 -7z"/>
<path d="M2106 4701 c-3 -4 14 -16 37 -27 23 -10 59 -31 79 -46 49 -38 96 -54
111 -39 13 13 -3 27 -100 84 -61 35 -115 47 -127 28z"/>
<path d="M6175 4568 c-121 -139 -121 -138 -35 -91 l74 41 18 63 c10 35 16 64
15 65 -1 1 -33 -34 -72 -78z"/>
<path d="M2382 4575 c2 -15 10 -32 19 -38 18 -11 109 0 109 13 0 13 -49 37
-94 45 -37 7 -37 7 -34 -20z"/>
<path d="M7617 4355 c-54 -7 -100 -14 -102 -17 -2 -2 27 -32 65 -66 l69 -63
16 31 c8 16 18 30 21 30 2 0 -1 -10 -7 -22 -7 -13 7 -3 29 22 29 31 41 53 39
70 -3 30 -7 31 -130 15z"/>
<path d="M2300 4281 l-115 -47 -7 -105 c-19 -307 -28 -482 -25 -486 3 -2 145
-28 317 -58 172 -30 314 -56 317 -58 3 -4 -161 -107 -289 -181 -27 -16 -50
-31 -53 -36 -4 -7 85 -64 228 -145 27 -15 46 -33 44 -39 -3 -6 -55 -94 -116
-195 -61 -101 -110 -185 -108 -187 1 -2 45 26 96 62 51 36 95 63 98 61 2 -3
-17 -124 -42 -269 -25 -146 -45 -270 -45 -276 0 -6 37 -23 83 -37 45 -15 85
-31 89 -34 5 -4 -15 -24 -43 -45 -27 -22 -46 -42 -42 -46 7 -6 53 -25 212 -88
7 -3 -14 36 -48 86 l-61 91 0 92 0 92 68 101 c38 56 112 174 165 263 93 154
97 163 97 220 0 32 4 63 8 69 4 6 47 26 97 46 l90 36 45 188 c25 104 61 229
78 278 18 49 31 90 29 92 -2 2 -89 45 -194 96 l-190 93 -96 105 -96 106 -224
102 c-123 56 -230 102 -238 101 -8 0 -66 -22 -129 -48z m578 -223 c-48 -342
-76 -513 -85 -511 -6 1 -147 105 -313 230 l-303 228 334 56 c184 31 343 57
355 58 20 1 20 -2 12 -61z m75 -1021 c81 -33 144 -64 140 -67 -10 -9 -384 -83
-389 -77 -2 2 3 55 11 117 8 63 15 115 15 117 0 2 17 -4 38 -13 20 -8 103 -43
185 -77z"/>
<path d="M7470 4196 c0 -33 5 -48 16 -53 9 -3 11 -8 6 -12 -6 -4 -1 -24 12
-50 l23 -44 26 29 c15 16 27 31 27 34 0 3 -25 36 -55 74 l-55 69 0 -47z"/>
<path d="M7559 4054 c-24 -25 -24 -26 -4 -41 49 -36 54 -36 48 4 -9 61 -16 67
-44 37z"/>
<path d="M8570 3850 c-19 -10 -39 -16 -45 -12 -5 3 6 -10 25 -30 l35 -35 12
46 c7 25 11 46 10 47 -1 1 -18 -6 -37 -16z"/>
<path d="M8762 3778 c-7 -7 -17 -13 -22 -13 -5 0 -33 -13 -64 -30 -39 -21 -56
-37 -59 -55 -7 -31 0 -38 39 -46 30 -6 33 -3 66 53 59 97 68 119 40 91z m-22
-22 c0 -1 -28 -27 -62 -55 l-63 -53 60 56 c58 54 65 60 65 52z"/>
<path d="M8796 3739 c-4 -24 -9 -57 -12 -74 -4 -25 -2 -23 16 14 22 47 24 68
11 90 -6 9 -11 0 -15 -30z"/>
<path d="M8890 3699 c0 -45 31 -121 47 -115 8 3 20 6 26 6 7 0 4 5 -6 11 -9 5
-22 7 -27 4 -6 -4 -7 6 -3 26 4 23 3 30 -5 25 -8 -5 -12 1 -12 16 0 13 -5 30
-10 38 -8 12 -10 10 -10 -11z"/>
<path d="M7896 3657 c-3 -12 -6 -25 -6 -29 0 -11 88 -10 94 1 10 15 -19 41
-51 45 -25 4 -32 0 -37 -17z"/>
<path d="M8179 3379 c-46 -39 -84 -76 -84 -82 0 -5 75 -62 166 -126 92 -64
166 -117 165 -118 -1 -2 -64 18 -140 43 -75 25 -139 44 -141 42 -5 -5 89 -278
95 -278 3 0 50 42 103 93 l98 92 -83 203 c-45 111 -85 202 -88 202 -4 0 -44
-32 -91 -71z"/>
<path d="M8799 3195 c-15 -52 -29 -87 -39 -89 -8 -3 -78 -17 -155 -32 -77 -15
-144 -30 -148 -34 -7 -6 115 -409 129 -428 1 -2 28 5 59 14 50 16 63 26 98 74
22 30 67 85 99 121 32 37 58 72 58 78 0 7 -27 52 -61 102 -33 50 -58 93 -55
97 4 3 44 -6 91 -20 47 -14 85 -23 85 -20 0 10 -125 222 -131 222 -4 0 -17
-38 -30 -85z"/>
<path d="M9348 2585 c-109 -37 -156 -68 -199 -132 -17 -24 -28 -43 -26 -43 2
0 49 25 104 55 95 52 248 156 228 154 -6 0 -54 -16 -107 -34z"/>
<path d="M9030 2386 c-31 -6 -50 -15 -43 -19 22 -14 58 -11 86 7 44 29 41 30
-43 12z"/>
</g>
</svg>
