<?xml version="1.0" encoding="iso-8859-1"?>
<!-- Generator: Adobe Illustrator 19.0.0, SVG Export Plug-In . SVG Version: 6.00 Build 0)  -->
<svg version="1.1" id="Layer_1" xmlns="http://www.w3.org/2000/svg" xmlns:xlink="http://www.w3.org/1999/xlink" x="0px" y="0px"
	 viewBox="0 0 512 512" style="enable-background:new 0 0 512 512;" xml:space="preserve">
<path style="fill:#E6563A;" d="M283.826,211.478H150.261c-9.217,0-16.696-7.473-16.696-16.696V128
	c0-9.223,7.479-16.696,16.696-16.696h133.565c9.217,0,16.696,7.473,16.696,16.696v66.783
	C300.522,204.005,293.043,211.478,283.826,211.478z"/>
<path style="fill:#D9472B;" d="M283.826,111.304h-66.783v100.174h66.783c9.217,0,16.696-7.473,16.696-16.696V128
	C300.522,118.777,293.043,111.304,283.826,111.304z"/>
<path style="fill:#E6563A;" d="M317.217,345.043H116.87c-9.217,0-16.696-7.473-16.696-16.696v-66.783
	c0-9.223,7.479-16.696,16.696-16.696h200.348c9.217,0,16.696,7.473,16.696,16.696v66.783
	C333.913,337.57,326.435,345.043,317.217,345.043z"/>
<path style="fill:#D9472B;" d="M317.217,244.87H217.043v100.174h100.174c9.217,0,16.696-7.473,16.696-16.696v-66.783
	C333.913,252.343,326.435,244.87,317.217,244.87z"/>
<path style="fill:#E6563A;" d="M350.609,512H83.478c-9.217,0-16.696-7.473-16.696-16.696V395.13c0-9.223,7.479-16.696,16.696-16.696
	h267.13c9.217,0,16.696,7.473,16.696,16.696v100.174C367.304,504.527,359.826,512,350.609,512z"/>
<path style="fill:#D9472B;" d="M350.609,378.435H217.043V512h133.565c9.217,0,16.696-7.473,16.696-16.696V395.13
	C367.304,385.908,359.826,378.435,350.609,378.435z"/>
<path style="fill:#E6563A;" d="M217.043,77.913c-9.217,0-16.696-7.473-16.696-16.696V16.696C200.348,7.473,207.826,0,217.043,0
	s16.696,7.473,16.696,16.696v44.522C233.739,70.44,226.261,77.913,217.043,77.913z"/>
<path style="fill:#F9A926;" d="M445.217,133.565c-36.826,0-66.783-29.956-66.783-66.783S408.391,0,445.217,0S512,29.956,512,66.783
	S482.044,133.565,445.217,133.565z"/>
<path style="fill:#736056;" d="M233.739,512h-33.391v-50.087c0-9.22,7.475-16.696,16.696-16.696l0,0
	c9.22,0,16.696,7.475,16.696,16.696V512z"/>
<path style="fill:#665247;" d="M233.739,512v-50.087c0-9.22-7.475-16.696-16.696-16.696V512H233.739z"/>
<path style="fill:#D9472B;" d="M233.739,61.217V16.696C233.739,7.473,226.261,0,217.043,0v77.913
	C226.261,77.913,233.739,70.44,233.739,61.217z"/>
<path style="fill:#736056;" d="M417.391,411.826H16.696C7.479,411.826,0,404.353,0,395.13c0-9.223,7.479-16.696,16.696-16.696
	c27.619,0,50.087-22.468,50.087-50.087c0-9.223,7.479-16.696,16.696-16.696h267.13c9.217,0,16.696,7.473,16.696,16.696
	c0,27.619,22.468,50.087,50.087,50.087c9.217,0,16.696,7.473,16.696,16.696C434.087,404.353,426.608,411.826,417.391,411.826z"/>
<path style="fill:#665247;" d="M417.391,378.435c-27.619,0-50.087-22.468-50.087-50.087c0-9.223-7.479-16.696-16.696-16.696H217.043
	v100.174h200.348c9.217,0,16.696-7.473,16.696-16.696C434.087,385.908,426.608,378.435,417.391,378.435z"/>
<path style="fill:#736056;" d="M384,278.261H50.087c-9.217,0-16.696-7.473-16.696-16.696c0-9.223,7.479-16.696,16.696-16.696
	c27.619,0,50.087-22.468,50.087-50.087c0-9.223,7.479-16.696,16.696-16.696h200.348c9.217,0,16.696,7.473,16.696,16.696
	c0,27.619,22.468,50.087,50.087,50.087c9.217,0,16.696,7.473,16.696,16.696C400.696,270.788,393.217,278.261,384,278.261z"/>
<path style="fill:#665247;" d="M384,244.87c-27.619,0-50.087-22.468-50.087-50.087c0-9.223-7.479-16.696-16.696-16.696H217.043
	v100.174H384c9.217,0,16.696-7.473,16.696-16.696C400.696,252.343,393.217,244.87,384,244.87z"/>
<path style="fill:#736056;" d="M350.609,144.696H83.478c-9.217,0-16.696-7.473-16.696-16.696s7.479-16.696,16.696-16.696
	c27.619,0,50.087-22.468,50.087-50.087c0-9.223,7.479-16.696,16.696-16.696h133.565c9.217,0,16.696,7.473,16.696,16.696
	c0,27.619,22.468,50.087,50.087,50.087c9.217,0,16.696,7.473,16.696,16.696S359.826,144.696,350.609,144.696z"/>
<path style="fill:#665247;" d="M350.609,111.304c-27.619,0-50.087-22.468-50.087-50.087c0-9.223-7.479-16.696-16.696-16.696h-66.783
	v100.174h133.565c9.217,0,16.696-7.473,16.696-16.696S359.826,111.304,350.609,111.304z"/>
<g>
</g>
<g>
</g>
<g>
</g>
<g>
</g>
<g>
</g>
<g>
</g>
<g>
</g>
<g>
</g>
<g>
</g>
<g>
</g>
<g>
</g>
<g>
</g>
<g>
</g>
<g>
</g>
<g>
</g>
</svg>
