<?xml version="1.0" encoding="iso-8859-1"?>
<!-- Generator: Adobe Illustrator 19.0.0, SVG Export Plug-In . SVG Version: 6.00 Build 0)  -->
<svg version="1.1" id="Layer_1" xmlns="http://www.w3.org/2000/svg" xmlns:xlink="http://www.w3.org/1999/xlink" x="0px" y="0px"
	 viewBox="0 0 512 512" style="enable-background:new 0 0 512 512;" xml:space="preserve">
<g>
	<path style="fill:#FB7B76;" d="M459.036,79.448C401.657,79.448,256.002,0,256.002,0S110.347,79.448,52.967,79.448
		c0,0,13.241,17.655,88.276,17.655h114.759H370.76C445.795,97.103,459.036,79.448,459.036,79.448"/>
	<g>
		<path style="fill:#FFFFFF;" d="M247.174,70.621h-17.655c-4.882,0-8.828-3.955-8.828-8.828s3.946-8.828,8.828-8.828h17.655
			c4.882,0,8.828,3.955,8.828,8.828S252.056,70.621,247.174,70.621"/>
		<path style="fill:#FFFFFF;" d="M291.312,61.793c0,4.873-3.955,8.828-8.828,8.828c-4.873,0-8.828-3.955-8.828-8.828
			s3.955-8.828,8.828-8.828C287.357,52.966,291.312,56.92,291.312,61.793"/>
	</g>
	<g>
		<path style="fill:#FB7B76;" d="M79.45,88.276c-24.338,0-44.138-19.8-44.138-44.138c0-4.873,3.946-8.828,8.828-8.828
			s8.828,3.955,8.828,8.828c0,14.601,11.882,26.483,26.483,26.483c4.882,0,8.828,3.955,8.828,8.828
			C88.278,84.321,84.332,88.276,79.45,88.276"/>
		<path style="fill:#FB7B76;" d="M501.301,512H10.699C4.793,512,0,507.207,0,501.301v-13.912c0-5.906,4.793-10.699,10.699-10.699
			h490.602c5.906,0,10.699,4.793,10.699,10.699v13.912C512,507.207,507.207,512,501.301,512"/>
	</g>
	<polygon style="fill:#E2DBCA;" points="344.278,432.552 388.416,432.552 388.416,256 344.278,256 	"/>
	<polygon style="fill:#BCB3A0;" points="388.416,432.552 432.553,432.552 432.553,256 388.416,256 	"/>
	<polygon style="fill:#E2DBCA;" points="432.553,432.552 476.691,432.552 476.691,256 432.553,256 	"/>
	<polygon style="fill:#BCB3A0;" points="167.726,476.69 344.278,476.69 344.278,256 167.726,256 	"/>
	<path style="fill:#938A79;" d="M300.14,476.69h-88.276V318.42l0,0c24.373-24.373,63.903-24.373,88.276,0l0,0V476.69z"/>
	<path style="fill:#FB7B76;" d="M256.002,141.241c0,0-150.069,88.276-247.172,88.276c0,0,13.974,26.483,61.793,26.483h185.379
		h185.379c47.819,0,61.793-26.483,61.793-26.483C406.071,229.517,256.002,141.241,256.002,141.241"/>
	<g>
		<path style="fill:#FFFFFF;" d="M282.485,220.69h-17.655c-4.882,0-8.828-3.955-8.828-8.828s3.946-8.828,8.828-8.828h17.655
			c4.882,0,8.828,3.955,8.828,8.828S287.366,220.69,282.485,220.69"/>
		<path style="fill:#FFFFFF;" d="M220.691,211.862c0-4.873,3.955-8.828,8.828-8.828c4.873,0,8.828,3.955,8.828,8.828
			s-3.955,8.828-8.828,8.828C224.646,220.69,220.691,216.735,220.691,211.862"/>
	</g>
	<path style="fill:#FB7B76;" d="M432.553,88.276c-4.882,0-8.828-3.955-8.828-8.828c0-4.873,3.946-8.828,8.828-8.828
		c14.601,0,26.483-11.882,26.483-26.483c0-4.873,3.946-8.828,8.828-8.828c4.882,0,8.828,3.955,8.828,8.828
		C476.691,68.476,456.891,88.276,432.553,88.276"/>
	<path style="fill:#E2DBCA;" d="M256.002,141.241c0,0,72.969,42.902,150.069,68.882V97.103H105.933v113.02
		C183.033,184.143,256.002,141.241,256.002,141.241"/>
	<polygon style="fill:#938A79;" points="344.278,476.69 476.691,476.69 476.691,432.552 344.278,432.552 	"/>
	<polygon style="fill:#E2DBCA;" points="35.312,432.552 79.45,432.552 79.45,256 35.312,256 	"/>
	<polygon style="fill:#BCB3A0;" points="79.45,432.552 123.588,432.552 123.588,256 79.45,256 	"/>
	<polygon style="fill:#E2DBCA;" points="123.588,432.552 167.726,432.552 167.726,256 123.588,256 	"/>
	<polygon style="fill:#938A79;" points="35.312,476.69 167.726,476.69 167.726,432.552 35.312,432.552 	"/>
</g>
<g>
</g>
<g>
</g>
<g>
</g>
<g>
</g>
<g>
</g>
<g>
</g>
<g>
</g>
<g>
</g>
<g>
</g>
<g>
</g>
<g>
</g>
<g>
</g>
<g>
</g>
<g>
</g>
<g>
</g>
</svg>
