<svg xmlns="http://www.w3.org/2000/svg" xmlns:xlink="http://www.w3.org/1999/xlink" xmlns:fi="http://pattern.flaticon.com/" x="0" y="0" width="700" height="350" viewBox="0 0 696.0227272727273 348.0113636363636"><rect x="0px" y="0px" width="100%" height="100%" opacity="0" fill="#ffffff"/><defs><g transform="matrix(0.1171875 0 0 0.1171875 82 14)" id="L1_6"><path d="M70.214,200.249 36.431,244.16 66.474,265.893 441.786,265.893 475.569,244.16   441.786,200.249 256,177.682z" fill="#ff6835"/><path d="M107.478,195.722 70.214,200.248 36.431,244.159 58.135,259.86z" fill="#e65e30"/><rect x="58px" y="260px" width="394px" height="160px" fill="#ff6835"/><path d="M453.159,260.46H58.841v51.504c9.537,2.168,19.461,3.278,29.686,3.278h334.947  c10.225,0,20.148-1.109,29.686-3.278L453.159,260.46L453.159,260.46z" fill="#e65e30"/><g><rect x="42px" y="266px" width="33px" height="145px" fill="#ff462e"/><rect x="131px" y="266px" width="33px" height="145px" fill="#ff462e"/><rect x="436px" y="266px" width="33px" height="145px" fill="#ff462e"/><rect x="347px" y="266px" width="33px" height="145px" fill="#ff462e"/><path d="M395.702,25.255H116.298c-5.184,0-9.387,4.202-9.387,9.387v24.146L256,77.325l149.089-18.537V34.642   C405.089,29.458,400.886,25.255,395.702,25.255z" fill="#ff462e"/></g><path d="M144.197,58.789V34.642c0-5.184,4.203-9.387,9.387-9.387h-37.285c-5.184,0-9.387,4.203-9.387,9.387  v24.146L256,77.325l18.642-2.318L144.197,58.789z" fill="#e63f29"/><path d="M70.214,117.687 106.911,58.788 405.089,58.788 441.786,117.687 441.786,141.886   409.306,154.031 95.878,154.031 70.214,134.656z" fill="#ff6835"/><path d="M94.599,138.389 144.197,58.789 106.911,58.789 70.214,117.687 70.214,134.656   94.599,153.066z" fill="#e65e30"/><path d="M70.214,159.772 70.214,200.249 441.786,200.249 441.786,159.772 441.786,141.886   409.306,154.031 95.878,154.031z" fill="#2fc8b4"/><path d="M128.844,154.031 95.878,154.031 70.214,159.772 70.214,200.248 103.18,200.248   103.18,159.772z" fill="#00ae95"/><g><path d="M180.051,108.505c-4.268,0-7.726-3.459-7.726-7.726V87.033c0-4.267,3.458-7.726,7.726-7.726   c4.268,0,7.726,3.459,7.726,7.726v13.746C187.777,105.045,184.319,108.505,180.051,108.505z" fill="#3b484a"/><path d="M331.949,108.505c-4.268,0-7.726-3.459-7.726-7.726V87.033c0-4.267,3.458-7.726,7.726-7.726   c4.268,0,7.726,3.459,7.726,7.726v13.746C339.675,105.045,336.217,108.505,331.949,108.505z" fill="#3b484a"/><path d="M256,115.842c-9.534,0-18.487-3.986-24.563-10.934c-2.809-3.212-2.481-8.094,0.731-10.902   c3.211-2.808,8.093-2.482,10.902,0.731c3.141,3.592,7.853,5.653,12.929,5.653c5.077,0,9.789-2.06,12.929-5.652   c2.808-3.213,7.689-3.541,10.901-0.732c3.213,2.808,3.542,7.689,0.732,10.902C274.489,111.856,265.535,115.842,256,115.842z" fill="#3b484a"/></g><g><path d="M157.848,397.571H27.723c-9.488,0-17.18,7.691-17.18,17.18v71.994h87.291   c5.713-2.401,91.048-44.587,91.048-44.587L157.848,397.571z" fill="#a3a3a3"/><path d="M354.152,397.571h130.125c9.488,0,17.18,7.691,17.18,17.18v71.994h-87.291   c-5.713-2.401-91.048-44.587-91.048-44.587L354.152,397.571z" fill="#a3a3a3"/></g><g><path d="M42.061,306.898c10.624,4.041,21.857,6.646,33.558,7.742v-48.573H42.061V306.898z" fill="#e63f29"/><rect x="131px" y="266px" width="33px" height="49px" fill="#e63f29"/><rect x="347px" y="266px" width="33px" height="49px" fill="#e63f29"/><path d="M436.38,314.64c11.702-1.096,22.935-3.7,33.558-7.742v-40.831H436.38V314.64z" fill="#e63f29"/></g><g><path d="M423.473,284.336H88.527c-63.239,0-87.524-53.098-88.527-55.358l30.675-13.61l-0.048-0.109   c0.669,1.451,16.861,35.519,57.9,35.519h334.947c41.659,0,57.694-35.055,57.852-35.409L512,228.978   C510.998,231.239,486.712,284.336,423.473,284.336z" fill="#ff462e"/><path d="M394.709,171.449H117.291c-63.239,0-87.524-53.098-88.527-55.358l30.675-13.61l-0.048-0.109   c0.669,1.45,16.861,35.519,57.9,35.519h277.417c41.659,0,57.694-35.055,57.852-35.409l30.675,13.61   C482.233,118.351,457.947,171.449,394.709,171.449z" fill="#ff462e"/></g><path d="M290.133,311.834h-68.266c-9.214,0-16.684,7.47-16.684,16.685v88.229h101.635v-88.229  C306.817,319.304,299.347,311.834,290.133,311.834z" fill="#3b484a"/><g><path d="M157.848,397.571 157.848,427.295 256,442.158 354.152,427.295 354.152,397.571z" fill="#dedede"/><path d="M380.691,457.02 256,442.158 131.309,457.02 97.835,457.02 97.835,486.745 414.165,486.745    414.165,457.02z" fill="#dedede"/></g><rect x="131px" y="427px" width="249px" height="29px" fill="#bdbdbd"/></g><path d="M480.744,133.872C490.584,121.576,496,106.136,496,90.384V72h-97.584l-11.472-26.768C394.664,41.24,400,33.272,400,24    c0-13.232-10.768-24-24-24s-24,10.768-24,24c0,2.816,0.576,5.488,1.472,8H142.528c0.896-2.512,1.472-5.184,1.472-8    c0-13.232-10.768-24-24-24S96,10.768,96,24c0,9.272,5.336,17.24,13.056,21.232L97.584,72H0v18.384    c0,15.752,5.416,31.192,15.256,43.488C27.36,149,44.896,158.16,64,159.688V232H0v17.544l1.712,4.288    c8.2,20.504,25.56,35.032,46.288,40.08V344H0v152h88h8h304h8h88V344h-48v-50.088c20.728-5.048,38.08-19.576,46.28-40.08    l1.72-4.288V232h-64v-72.312C451.104,158.16,468.64,149,480.744,133.872z M376,16c4.408,0,8,3.592,8,8s-3.592,8-8,8    c-4.408,0-8-3.592-8-8S371.592,16,376,16z M370.728,48l10.288,24H368v16h19.872l24,56H349.2l-24.888-56H352V72H114.984l10.288-24    H370.728z M256,248h35.056l16,32H256V248z M240,232v-32h16v32H240z M272,232v-32h72v32H272z M347.056,248l16,32h-38.112l-16-32    H347.056z M360,232v-32h16v32H360z M403.72,248l21.336,32h-44.112l-16-32H403.72z M416,232h-3.72H408h-16v-48h-40h-8h-72h-8h-32    h-8h-72h-8h-40v48H88h-4.28H80v-72h336V232z M148.944,248h38.112l-16,32h-38.112L148.944,248z M120,232v-32h16v32H120z M152,232    v-32h72v32H152z M204.944,248H240v32h-51.056L204.944,248z M164.312,144L189.2,88H240v56H164.312z M256,144V88h50.8l24.888,56H256    z M120,16c4.408,0,8,3.592,8,8s-3.592,8-8,8s-8-3.592-8-8S115.592,16,120,16z M108.128,88h63.56L146.8,144H84.128L108.128,88z     M27.744,123.88C20.168,114.408,16,102.512,16,90.384V88h74.728l-23.936,55.84C51.504,143.048,37.384,135.92,27.744,123.88z     M16.616,248h56.432l-20.4,30.6C36.536,274.96,22.992,263.832,16.616,248z M88,368v8v104H16V360h72V368z M168,480h-32v-48    c0-8.824,7.176-16,16-16c8.824,0,16,7.176,16,16V480z M264,480h-32v-48c0-8.824,7.176-16,16-16c8.824,0,16,7.176,16,16V480z     M360,480h-32v-48c0-8.824,7.176-16,16-16c8.824,0,16,7.176,16,16V480z M392,480h-16v-48c0-17.648-14.352-32-32-32    s-32,14.352-32,32v48h-32v-48c0-17.648-14.352-32-32-32s-32,14.352-32,32v48h-32v-48c0-17.648-14.352-32-32-32s-32,14.352-32,32    v48h-16v-96h288V480z M104,368v-32h40v32H104z M160,368v-32h32v32H160z M208,368v-32h32v32H208z M256,368v-32h32v32H256z M304,368    v-32h32v32H304z M392,368h-40v-32h40V368z M88,320v24H64v-48h16v-16h-9.056l21.336-32h38.776l-16,32H96v16h336v48h-24v-24H88z     M480,360v120h-72V376v-8v-8H480z M479.376,248c-6.368,15.832-19.912,26.96-36.032,30.6l-20.4-30.6H479.376z M429.208,143.84    L405.272,88H480v2.384c0,12.128-4.168,24.024-11.744,33.496C458.616,135.92,444.504,143.048,429.208,143.84z" transform="matrix(0.12096773833036423 0 0 0.12096773833036423 282 90)" id="L1_7"/><g transform="matrix(0.14062489569187164 0 0 0.14062489569187164 140.00000005149832 165)" id="L1_8"><g><path d="M417.28,154.453 366.507,206.507 366.507,165.547" fill="#2f4859"/><path d="M9.387,142.507 60.16,200.107 66.987,164.267z" fill="#2f4859"/><path d="M417.28,45.227 366.507,97.707 366.507,56.747" fill="#2f4859"/><path d="M9.387,33.707 60.16,90.88 64.853,56.32" fill="#2f4859"/></g><rect x="34px" y="304px" width="357px" height="122px" fill="#e56353"/><path d="M349.44,263.253 77.227,263.253 34.987,304.213 391.68,304.213z" fill="#fcd462"/><rect x="60px" y="330px" width="38px" height="70px" fill="#2d93ba"/><path d="M98.987,400.64 98.987,330.24 60.16,330.24z" fill="#27a2db"/><g><rect x="78px" y="330px" width="2px" height="70px" fill="#ebf0f3"/><rect x="60px" y="347px" width="38px" height="3px" fill="#ebf0f3"/></g><rect x="328px" y="330px" width="38px" height="70px" fill="#2d93ba"/><path d="M367.787,400.64 367.787,330.24 328.96,330.24z" fill="#27a2db"/><g><rect x="347px" y="330px" width="2px" height="70px" fill="#ebf0f3"/><rect x="328px" y="347px" width="38px" height="3px" fill="#ebf0f3"/></g><rect x="140px" y="330px" width="145px" height="96px" fill="#dc8744"/><g><rect x="210px" y="330px" width="6px" height="96px" fill="#64798a"/><circle cx="228" cy="378" r="5" fill="#64798a"/><circle cx="197" cy="378" r="5" fill="#64798a"/></g><rect x="60px" y="97px" width="306px" height="18px" fill="#fcd462"/><path d="M366.507,159.147 60.16,154.88 60.16,116.053 366.507,116.053z" fill="#e56353"/><rect x="60px" y="56px" width="306px" height="40px" fill="#64798a"/><g><rect x="327px" y="56px" width="20px" height="40px" fill="#e1e6e9"/><rect x="285px" y="56px" width="20px" height="40px" fill="#e1e6e9"/><rect x="244px" y="56px" width="20px" height="40px" fill="#e1e6e9"/><rect x="203px" y="56px" width="20px" height="40px" fill="#e1e6e9"/><rect x="161px" y="56px" width="20px" height="40px" fill="#e1e6e9"/><rect x="119px" y="56px" width="20px" height="40px" fill="#e1e6e9"/><rect x="78px" y="56px" width="20px" height="40px" fill="#e1e6e9"/></g><path d="M9.387,33.707c0,0,86.187,31.147,203.947-33.707c0,0,83.2,58.88,203.947,45.227  C417.28,45.227,180.48,126.72,9.387,33.707z" fill="#3a556a"/><rect x="60px" y="206px" width="306px" height="18px" fill="#fcd462"/><rect x="60px" y="225px" width="306px" height="38px" fill="#e56353"/><rect x="60px" y="165px" width="306px" height="40px" fill="#64798a"/><g><rect x="327px" y="165px" width="20px" height="40px" fill="#e1e6e9"/><rect x="285px" y="165px" width="20px" height="40px" fill="#e1e6e9"/><rect x="244px" y="165px" width="20px" height="40px" fill="#e1e6e9"/><rect x="203px" y="165px" width="20px" height="40px" fill="#e1e6e9"/><rect x="161px" y="165px" width="20px" height="40px" fill="#e1e6e9"/><rect x="119px" y="165px" width="20px" height="40px" fill="#e1e6e9"/><rect x="78px" y="165px" width="20px" height="40px" fill="#e1e6e9"/></g><g><path d="M9.387,142.507c0,0,86.187,31.147,203.947-33.707c0,0,83.2,58.88,203.947,45.227   C417.28,154.453,180.48,235.947,9.387,142.507z" fill="#3a556a"/><path d="M270.08,243.627c35.84,12.8,87.04,24.32,147.2,17.493c0,0-236.8,81.493-407.893-11.52   c0,0,52.48,16.213,130.987-5.973" fill="#3a556a"/></g></g><path d="M19.504,18.188l-1.578-7.821c0,0-0.43,0-0.625,0v-0.351c0.486-0.365,0.744-0.724,0.744-0.724l-0.244-0.516   c0,0-0.453,0.243-1.518,0.062C15.223,8.656,14.83,8.11,14.83,8.11s0.395,0.03,1.027-0.211c0.641-0.243,1.275-0.819,1.275-0.819   L16.92,6.442c0,0-1.183,0.365-3.364-0.483c-2.073-0.808-3.275-3.032-3.275-3.032c-0.12-0.212,0.335-0.879,0.093-1.275   c-0.214-0.348-0.547-0.34-0.622-0.334c-0.075-0.006-0.406-0.014-0.62,0.334c-0.244,0.396,0.211,1.062,0.09,1.275   c0,0-1.2,2.224-3.273,3.032C3.764,6.807,2.582,6.441,2.582,6.441L2.369,7.079c0,0,0.639,0.576,1.275,0.819   C4.28,8.14,4.674,8.11,4.674,8.11S4.28,8.655,3.219,8.837C2.16,9.02,1.703,8.775,1.703,8.775L1.46,9.293   c0,0,0.256,0.359,0.743,0.724v0.351c-0.197,0-0.627,0-0.627,0L0,18.188h5.811c0,0,0-6.669,0-6.7h0.335c0,0.426,0,6.7,0,6.7h7.212   c0,0,0-6.274,0-6.7h0.336c0,0.031,0,6.7,0,6.7H19.504z M2.817,7.141L2.908,6.8c0,0,1.116,0.272,2.068,0.045   c0.955-0.229,1.887-1.137,1.887-1.137S7.592,6.39,8.478,6.504c0.555,0.071,1.991,0.071,2.546,0   c0.887-0.114,1.615-0.796,1.615-0.796s0.934,0.91,1.887,1.137c0.954,0.227,2.07-0.045,2.07-0.045l0.089,0.341   c0,0-1.065,0.317-1.886,0.228c-0.821-0.092-2.184-1.024-2.184-1.024s-0.478,0.387-1.184,0.546c-0.51,0.115-2.854,0.115-3.364,0   c-0.705-0.16-1.181-0.547-1.181-0.547s-1.364,0.931-2.18,1.023C3.888,7.458,2.817,7.141,2.817,7.141z M1.953,9.072   c0,0,0.592,0.34,1.935,0.295c1.341-0.045,2.386-1.41,2.386-1.41s0.864,0.568,1.684,0.772c0.582,0.147,3.009,0.147,3.589,0   c0.818-0.204,1.686-0.772,1.686-0.772s1.045,1.364,2.389,1.41c1.338,0.045,1.93-0.295,1.93-0.295l0.16,0.295   c0,0-0.226,0.206-0.787,0.334h-1.991c-1.297-0.288-1.769-1.176-1.769-1.176s-0.683,0.477-1.707,0.636   c-0.644,0.102-2.766,0.102-3.409,0C7.024,9.004,6.341,8.526,6.341,8.526S5.869,9.415,4.572,9.703h-1.99   c-0.561-0.13-0.788-0.336-0.788-0.336L1.953,9.072z M12.902,11.035c0,0,0,6.275,0,6.7h-1.271v-3.772c0,0-0.156-1.799-1.879-1.799   s-1.88,1.799-1.88,1.799v3.772H6.601c0-0.424,0-6.7,0-6.7H2.357v0.668c0,0,2.611,0,2.999,0v6.032H0.558   c0.099-0.493,1.326-6.578,1.392-6.912c0.195,0,0.709,0,0.709,0s0-0.297,0-0.518c0.749,0.359,2.166,0.411,2.166,0.411h3.928v0.517   h2.001v-0.517h3.926c0,0,1.417-0.053,2.166-0.411c0,0.221,0,0.518,0,0.518s0.516,0,0.709,0c0.068,0.334,1.295,6.418,1.395,6.912   h-4.8v-6.032c0.386,0,2.91,0,2.91,0v-0.668H12.902z" transform="matrix(3.076292037963867 0 0 3.076292037963867 319 210.99999910813062)" id="L1_9"/><g transform="matrix(0.1171875 0 0 0.1171875 201 284.99999917030334)" id="L1_10"><path d="M219.136,419.669v-80.233c0-20.399,16.595-36.996,36.995-36.996c9.883,0,19.169,3.849,26.147,10.839  c6.988,6.975,10.837,16.266,10.837,26.156v80.233L219.136,419.669L219.136,419.669z" fill="#4e4c58"/><path d="M165.798,137.226l4.408-3.569c11.931-9.657,18.772-23.989,18.772-39.32v-2.008h133.963v2.008  c0,15.331,6.842,29.663,18.772,39.32l4.408,3.569H165.798z" fill="#c43341"/><path d="M136.383,178.115v-33.19h2.008c11.558,0,22.857-4.001,31.814-11.268l0.553-0.448h170.404l0.553,0.448  c8.958,7.266,20.257,11.268,31.814,11.268h2.008v33.19H136.383z" fill="#f1444a"/><g><rect x="174px" y="174px" width="83px" height="50px" fill="#fcd681"/><rect x="253px" y="174px" width="83px" height="50px" fill="#fcd681"/></g><path d="M42.386,265.577l-1.903-2.457L42,261.884c11.837-9.655,18.627-23.946,18.627-39.204v-2.008h390.746  v2.008c0,15.345,6.845,29.676,18.779,39.319l1.736,1.402l-2.166,2.166l-0.841,0.01L42.386,265.577L42.386,265.577z" fill="#c43341"/><path d="M8.032,306.457v-33.19h2.008c11.637,0,22.987-4.042,31.958-11.382l1.596-1.306l0.761,0.983h423.696  l0.692-0.692l1.415,1.131c8.945,7.265,20.24,11.267,31.804,11.267h2.008v33.19H8.032V306.457z" fill="#f1444a"/><rect x="377px" y="302px" width="88px" height="50px" fill="#fac870"/><path d="M289.1,353.029v-13.593c0-8.816-3.431-17.097-9.661-23.317c-6.222-6.231-14.499-9.663-23.308-9.663  v-4.016h124.918v50.589L289.1,353.029L289.1,353.029z" fill="#fcd681"/><path d="M289.1,419.669 289.1,349.013 487.48,349.013 504.51,419.669z" fill="#ececed"/><path d="M131.072,353.029v-50.588h125.059v4.016c-18.184,0-32.979,14.794-32.979,32.98v13.593h-92.08V353.029  z" fill="#fcd681"/><rect x="46px" y="302px" width="88px" height="50px" fill="#fac870"/><path d="M7.491,419.669 24.521,349.013 223.152,349.013 223.152,419.669z" fill="#ececed"/><path d="M501.961,314.488c5.544,0,10.039-4.496,10.039-10.039v-29.174c0-5.544-4.496-10.039-10.039-10.039  c-9.867,0-19.113-3.275-26.76-9.485c-10.039-8.111-15.796-20.165-15.796-33.071c0-5.544-4.496-10.039-10.039-10.039H345.149v-26.493  h28.382c5.544,0,10.039-4.496,10.039-10.039v-29.174c0-5.544-4.496-10.039-10.039-10.039c-9.863,0-19.115-3.276-26.763-9.479  c-10.037-8.126-15.794-20.182-15.794-33.077c0-5.544-4.496-10.039-10.039-10.039H190.986c-5.544,0-10.039,4.496-10.039,10.039  c0,12.896-5.756,24.951-15.802,33.083c-7.64,6.198-16.892,9.474-26.755,9.474c-5.544,0-10.039,4.496-10.039,10.039v29.174  c0,5.544,4.496,10.039,10.039,10.039h28.372v26.493H62.635c-5.544,0-10.039,4.496-10.039,10.039c0,12.836-5.711,24.857-15.684,32.99  c-7.539,6.167-17.083,9.565-26.872,9.565C4.496,265.236,0,269.731,0,275.275v29.174c0,5.544,4.496,10.039,10.039,10.039H38.41  v26.494H26.102c-4.638,0-8.673,3.177-9.76,7.687L0.279,415.309c-0.721,2.991-0.03,6.148,1.872,8.564  c1.903,2.416,4.811,3.828,7.887,3.828h211.105h69.962h210.856c3.076,0,5.983-1.41,7.887-3.828c1.903-2.416,2.593-5.574,1.872-8.564  l-16.063-66.639c-1.087-4.51-5.122-7.687-9.76-7.687h-12.308v-26.494H501.961z M265.999,212.64v-26.493h59.071v26.493H265.999z   M311.695,104.377c1.185,7.362,3.672,14.39,7.307,20.802H192.919c3.634-6.412,6.122-13.44,7.308-20.802H311.695z M148.43,156.159  c9.5-1.55,18.573-5.283,26.416-10.901h162.23c7.846,5.62,16.916,9.351,26.415,10.901v9.91h-28.382H176.801H148.43V156.159z   M186.84,186.147h59.081v26.493H186.84L186.84,186.147L186.84,186.147z M440.126,232.719c1.185,7.369,3.673,14.4,7.309,20.811  H64.561c3.637-6.416,6.126-13.449,7.313-20.811H440.126z M20.079,284.501c9.507-1.548,18.576-5.275,26.411-10.893h419.036  c7.837,5.615,16.9,9.342,26.396,10.892v9.91h-28.371H48.45H20.079V284.501z M301.147,340.982v-1.546  c0-9.019-2.631-17.629-7.525-24.948h75.379v26.494L301.147,340.982L301.147,340.982z M211.105,339.436v1.546h-67.986v-26.493h75.552  C213.896,321.634,211.105,330.215,211.105,339.436z M58.489,314.488h64.552v26.494H58.489  C58.489,340.983,58.489,314.488,58.489,314.488z M34.009,361.06h177.096v46.562H22.785L34.009,361.06z M231.183,339.436  c0-13.757,11.191-24.948,24.947-24.948c6.661,0,12.919,2.594,17.633,7.316c4.709,4.702,7.304,10.964,7.304,17.632v68.186h-49.884  V339.436z M489.215,407.622H301.147V361.06h176.845L489.215,407.622z M389.08,340.982v-26.493h64.433v26.494H389.08V340.982z"/><path d="M451.323,374.451c-12.919,0-12.941,20.078,0,20.078C464.243,394.53,464.264,374.451,451.323,374.451z"/><path d="M418.528,374.152h-55.55c-5.544,0-10.039,4.496-10.039,10.039s4.496,10.039,10.039,10.039h55.55  c5.544,0,10.039-4.496,10.039-10.039S424.072,374.152,418.528,374.152z"/></g></defs><g fi:class="KUsePattern"><pattern id="pattern_L1_6" width="350" height="350" patternUnits="userSpaceOnUse"><use xlink:href="#L1_6" x="-350" y="-350"/><use xlink:href="#L1_6" x="0" y="-350"/><use xlink:href="#L1_6" x="350" y="-350"/><use xlink:href="#L1_6" x="-350" y="0"/><use xlink:href="#L1_6" x="0" y="0"/><use xlink:href="#L1_6" x="350" y="0"/><use xlink:href="#L1_6" x="-350" y="350"/><use xlink:href="#L1_6" x="0" y="350"/><use xlink:href="#L1_6" x="350" y="350"/></pattern><rect x="0" y="0" width="100%" height="100%" fill="url(#pattern_L1_6)"/></g><g fi:class="KUsePattern"><pattern id="pattern_L1_7" width="350" height="350" patternUnits="userSpaceOnUse"><use xlink:href="#L1_7" x="-350" y="-350"/><use xlink:href="#L1_7" x="0" y="-350"/><use xlink:href="#L1_7" x="350" y="-350"/><use xlink:href="#L1_7" x="-350" y="0"/><use xlink:href="#L1_7" x="0" y="0"/><use xlink:href="#L1_7" x="350" y="0"/><use xlink:href="#L1_7" x="-350" y="350"/><use xlink:href="#L1_7" x="0" y="350"/><use xlink:href="#L1_7" x="350" y="350"/></pattern><rect x="0" y="0" width="100%" height="100%" fill="url(#pattern_L1_7)"/></g><g fi:class="KUsePattern"><pattern id="pattern_L1_8" width="350" height="350" patternUnits="userSpaceOnUse"><use xlink:href="#L1_8" x="-350" y="-350"/><use xlink:href="#L1_8" x="0" y="-350"/><use xlink:href="#L1_8" x="350" y="-350"/><use xlink:href="#L1_8" x="-350" y="0"/><use xlink:href="#L1_8" x="0" y="0"/><use xlink:href="#L1_8" x="350" y="0"/><use xlink:href="#L1_8" x="-350" y="350"/><use xlink:href="#L1_8" x="0" y="350"/><use xlink:href="#L1_8" x="350" y="350"/></pattern><rect x="0" y="0" width="100%" height="100%" fill="url(#pattern_L1_8)"/></g><g fi:class="KUsePattern"><pattern id="pattern_L1_9" width="350" height="350" patternUnits="userSpaceOnUse"><use xlink:href="#L1_9" x="-350" y="-350"/><use xlink:href="#L1_9" x="0" y="-350"/><use xlink:href="#L1_9" x="350" y="-350"/><use xlink:href="#L1_9" x="-350" y="0"/><use xlink:href="#L1_9" x="0" y="0"/><use xlink:href="#L1_9" x="350" y="0"/><use xlink:href="#L1_9" x="-350" y="350"/><use xlink:href="#L1_9" x="0" y="350"/><use xlink:href="#L1_9" x="350" y="350"/></pattern><rect x="0" y="0" width="100%" height="100%" fill="url(#pattern_L1_9)"/></g><g fi:class="KUsePattern"><pattern id="pattern_L1_10" width="350" height="350" patternUnits="userSpaceOnUse"><use xlink:href="#L1_10" x="-350" y="-350"/><use xlink:href="#L1_10" x="0" y="-350"/><use xlink:href="#L1_10" x="350" y="-350"/><use xlink:href="#L1_10" x="-350" y="0"/><use xlink:href="#L1_10" x="0" y="0"/><use xlink:href="#L1_10" x="350" y="0"/><use xlink:href="#L1_10" x="-350" y="350"/><use xlink:href="#L1_10" x="0" y="350"/><use xlink:href="#L1_10" x="350" y="350"/></pattern><rect x="0" y="0" width="100%" height="100%" fill="url(#pattern_L1_10)"/></g></svg>