<?xml version="1.0" encoding="iso-8859-1"?>
<!-- Generator: Adobe Illustrator 19.0.0, SVG Export Plug-In . SVG Version: 6.00 Build 0)  -->
<svg version="1.1" id="Capa_1" xmlns="http://www.w3.org/2000/svg" xmlns:xlink="http://www.w3.org/1999/xlink" x="0px" y="0px"
	 viewBox="0 0 512 512" style="enable-background:new 0 0 512 512;" xml:space="preserve">
<path style="fill:#B4826E;" d="M318.913,310H193.087V170h125.825v140H318.913z M151.536,370v140h208.929V370H151.536z"/>
<path style="fill:#A06E5F;" d="M299.015,314.5V510h-86.03V314.5h19.898V170h46.234v144.5H299.015z"/>
<path style="fill:#916050;" d="M240.345,170v140c0,4.142-3.34,7.5-7.462,7.5s-7.462-3.358-7.462-7.5V170c0-4.142,3.34-7.5,7.462-7.5
	S240.345,165.858,240.345,170z M193.087,162.5c-4.121,0-7.462,3.358-7.462,7.5v140c0,4.142,3.34,7.5,7.462,7.5
	s7.462-3.358,7.462-7.5V170C200.549,165.858,197.209,162.5,193.087,162.5z M212.985,345c-4.121,0-7.462,3.358-7.462,7.5v140
	c0,4.142,3.341,7.5,7.462,7.5s7.462-3.358,7.462-7.5v-140C220.447,348.358,217.106,345,212.985,345z M299.015,345
	c-4.121,0-7.462,3.358-7.462,7.5v140c0,4.142,3.341,7.5,7.462,7.5s7.462-3.358,7.462-7.5v-140
	C306.477,348.358,303.136,345,299.015,345z M318.913,162.5c-4.121,0-7.462,3.358-7.462,7.5v140c0,4.142,3.34,7.5,7.462,7.5
	c4.121,0,7.462-3.358,7.462-7.5V170C326.374,165.858,323.034,162.5,318.913,162.5z M360.464,345c-4.121,0-7.462,3.358-7.462,7.5v140
	c0,4.142,3.341,7.5,7.462,7.5s7.462-3.358,7.462-7.5v-140C367.926,348.358,364.585,345,360.464,345z M279.117,162.5
	c-4.121,0-7.462,3.358-7.462,7.5v140c0,4.142,3.34,7.5,7.462,7.5c4.121,0,7.462-3.358,7.462-7.5V170
	C286.579,165.858,283.238,162.5,279.117,162.5z M151.536,345c-4.121,0-7.462,3.358-7.462,7.5v140c0,4.142,3.341,7.5,7.462,7.5
	s7.462-3.358,7.462-7.5v-140C158.997,348.358,155.657,345,151.536,345z M256,0c-4.121,0-7.462,3.358-7.462,7.5v40
	c0,4.142,3.341,7.5,7.462,7.5s7.462-3.358,7.462-7.5v-40C263.462,3.358,260.121,0,256,0z"/>
<path style="fill:#E6C8A0;" d="M130.643,397v-32c0-2.761,2.227-5,4.974-5h240.765c2.747,0,4.974,2.239,4.974,5v32
	c0,2.761-2.227,5-4.974,5H135.617C132.87,402,130.643,399.761,130.643,397z M406.23,450H105.77c-2.747,0-4.974,2.239-4.974,5v22
	c0,2.761,2.227,5,4.974,5h300.46c2.747,0,4.974-2.239,4.974-5v-22C411.204,452.239,408.977,450,406.23,450z"/>
<path style="fill:#C83741;" d="M422.595,330L422.595,330c0,16.569-13.363,30-29.847,30H263.411h-14.822H119.252
	c-16.484,0-29.847-13.431-29.847-30l0,0l43.688-17.589c20.08-8.084,37.251-22.095,49.249-40.185l0,0
	c0.923-1.391,2.476-2.227,4.139-2.227h62.108h14.822h62.108c1.663,0,3.216,0.835,4.139,2.227l0,0
	c11.999,18.09,29.17,32.1,49.249,40.185L422.595,330z M381.357,168.083l-33.384-16.27c-29.414-14.335-54.994-35.528-74.608-61.813
	l0,0h-34.73l0,0c-19.614,26.285-45.193,47.479-74.608,61.813l-33.384,16.27V195h250.714V168.083z"/>
<path style="fill:#D2B48C;" d="M451,485v22c0,2.761-2.227,5-4.974,5H65.974c-2.747,0-4.974-2.239-4.974-5v-22
	c0-2.761,2.227-5,4.974-5h319.008c0.63-0.838,1.017-1.869,1.017-3v-22c0-2.761-2.227-5-4.974-5h25.204c2.747,0,4.974,2.239,4.974,5
	v22c0,1.131-0.388,2.162-1.017,3h35.839C448.773,480,451,482.239,451,485z M351.179,402h25.204c2.747,0,4.974-2.239,4.974-5v-32
	c0-2.761-2.227-5-4.974-5h-25.204c2.747,0,4.974,2.239,4.974,5v32C356.153,399.761,353.926,402,351.179,402z"/>
<path style="fill:#C5AB8C;" d="M451,485v22c0,2.761-2.227,5-4.974,5h-25.204c2.747,0,4.974-2.239,4.974-5v-22
	c0-2.761-2.227-5-4.974-5h25.204C448.773,480,451,482.239,451,485z"/>
<path style="fill:#AA4141;" d="M381.357,195h-93.724c-15.48-20.918-24.669-46.984-24.669-75.25c0-10.254,1.217-20.215,3.497-29.75
	h6.904c19.614,26.285,45.193,47.479,74.608,61.813l33.384,16.27V195z M378.907,312.411c-20.08-8.084-37.251-22.095-49.249-40.185
	c-0.923-1.391-2.476-2.227-4.139-2.227h-20.767c-0.324,3.707-0.499,7.457-0.499,11.25c0,29.865,10.257,57.274,27.356,78.75h61.139
	c16.484,0,29.847-13.431,29.847-30L378.907,312.411z"/>
<g>
	<path style="fill:#963737;" d="M447.591,327.406l-6.882,12.681c-10.46,19.276-30.56,31.269-52.405,31.269h-10.329H134.024h-10.329
		c-21.845,0-41.945-11.993-52.405-31.269l-6.882-12.681c-2.156-3.973,1.629-8.551,5.909-7.148l0,0
		c22.432,7.352,45.879,11.098,69.473,11.098h232.417c23.595,0,47.041-3.746,69.473-11.098l0,0
		C445.962,318.856,449.747,323.434,447.591,327.406z M102.067,178.731c10.46,19.276,30.56,31.269,52.405,31.269h10.329h182.398
		h10.329c21.845,0,41.945-11.993,52.405-31.269l6.881-12.681c2.156-3.973-1.629-8.551-5.909-7.148l0,0
		C388.473,166.255,365.027,170,341.432,170H170.568c-23.595,0-47.041-3.745-69.473-11.098l0,0c-4.28-1.403-8.065,3.175-5.909,7.148
		L102.067,178.731z"/>
	<path style="fill:#963737;" d="M273.213,65.402c5.106,2.383,8.654,7.568,8.654,13.598l0,0c0,8.284-6.681,15-14.923,15h-21.888
		c-8.242,0-14.923-6.716-14.923-15l0,0c0-6.031,3.548-11.216,8.654-13.598c-5.309-4.762-8.654-11.688-8.654-19.402l0,0
		c0-14.359,11.581-26,25.867-26s25.867,11.641,25.867,26l0,0C281.867,53.714,278.522,60.64,273.213,65.402z"/>
</g>
<g>
</g>
<g>
</g>
<g>
</g>
<g>
</g>
<g>
</g>
<g>
</g>
<g>
</g>
<g>
</g>
<g>
</g>
<g>
</g>
<g>
</g>
<g>
</g>
<g>
</g>
<g>
</g>
<g>
</g>
</svg>
